<svg xmlns="http://www.w3.org/2000/svg" width="180" height="40" viewBox="0 0 180 40" fill="none" class="max-sm:w-[126px] max-sm:h-[28px]"><path d="M86.7548 18.071C84.9741 17.5906 83.4389 17.1781 83.4389 16.0292C83.4389 14.823 84.713 14.3739 85.8096 14.3739C86.9898 14.3739 88.0864 14.7603 88.7026 15.601L92.5773 14.9796C92.5773 14.9796 91.0786 10.8334 85.8044 10.8334C82.008 10.8334 79.3605 12.9953 79.3605 16.0919C79.3605 19.7107 82.6451 20.6141 85.2874 21.34C87.0786 21.8308 88.6243 22.259 88.6243 23.3818C88.6243 24.8909 86.9533 25.1886 85.9193 25.1886C84.4049 25.1886 83.0263 24.5724 82.4049 23.4705L78.4258 24.1024C78.4258 24.1024 79.7052 28.7082 85.8462 28.7082C89.9507 28.7082 92.7079 26.5828 92.7079 23.4183C92.6974 19.6794 89.4024 18.7864 86.7548 18.071Z" fill="#0050FF"/><path d="M118.698 14.1179V11.3293H114.839V28.1963H118.703V19.4234C118.703 17.8829 119.549 16.4364 120.949 15.7837C121.821 15.3764 123.257 15.0265 125.288 15.2354L123.763 11.3293C121.737 11.3293 119.774 12.0865 118.698 14.1179Z" fill="#0050FF"/><path d="M9.89848 10.896C4.90628 10.896 1.00024 14.7916 1.00024 19.7629C1.00024 24.7342 4.90628 28.6298 9.89848 28.6298C14.8855 28.6298 18.7967 24.7342 18.7967 19.7629C18.7967 14.7916 14.8855 10.896 9.89848 10.896ZM14.9325 19.7629C14.9325 22.6715 12.7653 24.8648 9.89848 24.8648C7.0264 24.8648 4.8645 22.6715 4.8645 19.7629C4.8645 16.8543 7.0264 14.661 9.89848 14.661C12.7706 14.661 14.9325 16.8543 14.9325 19.7629Z" fill="#0050FF"/><path d="M30.7386 10.896C28.3678 10.896 26.42 11.7733 25.0728 13.4443V11.3294H21.2085V34.8335H25.0728V26.1128C26.4252 27.7629 28.3783 28.6298 30.7386 28.6298C35.4488 28.6298 39.1407 24.7342 39.1407 19.7629C39.1355 14.8751 35.3705 10.896 30.7386 10.896ZM35.2765 19.7629C35.2765 22.7603 33.1302 24.9326 30.1746 24.9326C27.219 24.9326 25.0728 22.7603 25.0728 19.7629C25.0728 16.7707 27.219 14.5931 30.1746 14.5931C33.1302 14.5931 35.2765 16.7655 35.2765 19.7629Z" fill="#0050FF"/><path d="M69.7316 10.896C67.5541 10.896 65.8361 11.6688 64.729 13.1414V11.3294H60.8647V28.1964H64.729V19.1676C64.729 16.2224 66.212 14.5305 68.8021 14.5305C71.0737 14.5305 72.3792 15.883 72.3792 18.2381V28.1964H76.2434V17.8725C76.2382 13.6375 73.6847 10.896 69.7316 10.896Z" fill="#0050FF"/><path d="M107.117 20.3581C107.117 23.3033 105.634 24.9952 103.044 24.9952C100.773 24.9952 99.4673 23.6427 99.4673 21.2876V11.3293H95.603V21.6532C95.603 25.8882 98.1566 28.6245 102.11 28.6245C104.287 28.6245 106.005 27.8517 107.112 26.3791V28.1963H110.977V11.3293H107.112V20.3581H107.117Z" fill="#0050FF"/><path d="M135.07 23.6689L130.521 11.3293H126.302L132.882 28.1963H137.221L143.796 11.3293H139.581L135.07 23.6689Z" fill="#0050FF"/><path d="M54.3702 22.8858C53.6339 23.972 52.4277 24.7396 50.9185 24.9798C48.2971 25.3976 46.2031 24.3532 45.2788 22.1913L58.2815 20.1338C58.2815 20.1338 58.2397 18.9954 58.1562 18.4993C57.7802 16.1338 56.6105 14.0659 54.8559 12.6768C53.0491 11.246 50.7566 10.6612 48.4015 11.0319C43.3101 11.8413 40.1978 16.1077 41.002 21.1782C41.3884 23.6273 42.5999 25.7318 44.4642 27.0373C46.5843 28.5203 48.882 28.8336 51.4407 28.4994C54.7358 28.0712 56.5844 26.0764 57.352 25.0477L54.3702 22.8858ZM48.9237 14.5306C50.7566 14.2382 53.0439 14.891 54.036 17.5698L44.7409 19.0424C44.908 16.5985 46.459 14.9171 48.9237 14.5306Z" fill="#0050FF"/><path d="M157.288 22.8858C156.551 23.972 155.345 24.7396 153.836 24.9798C151.215 25.3976 149.121 24.3532 148.196 22.1913L161.199 20.1338C161.199 20.1338 161.157 18.9954 161.074 18.4993C160.698 16.1338 159.528 14.0659 157.773 12.6768C155.967 11.246 153.674 10.6612 151.319 11.0319C146.228 11.8413 143.115 16.1077 143.919 21.1782C144.306 23.6273 145.517 25.7318 147.382 27.0373C149.502 28.5203 151.799 28.8336 154.358 28.4994C157.653 28.0712 159.502 26.0764 160.269 25.0477L157.288 22.8858ZM151.841 14.5306C153.674 14.2382 155.961 14.891 156.954 17.5698L147.658 19.0424C147.826 16.5985 149.376 14.9171 151.841 14.5306Z" fill="#0050FF"/><path d="M164.431 34.8125H168.635L178.807 11.3293H174.666L170.019 22.5879L165.46 11.3293H161.313L167.611 27.4704L164.431 34.8125Z" fill="#0050FF"/></svg>